<svg xmlns="http://www.w3.org/2000/svg" xmlns:xlink="http://www.w3.org/1999/xlink" width="500" zoomAndPan="magnify" viewBox="0 0 375 374.999991" height="500" preserveAspectRatio="xMidYMid meet" version="1.0"><path fill="#2a245e" d="M 246.480469 290.875 C 257.335938 291.261719 267.140625 292.734375 273.667969 297.574219 C 274.5625 298.234375 275.074219 299.304688 274.996094 300.417969 C 273.976562 314.910156 266.046875 320.820312 254.664062 322.453125 C 250.492188 321.921875 249.054688 319.78125 251.261719 315.5 C 244.554688 315.734375 242.570312 312.199219 245.410156 304.820312 C 241.542969 305.648438 239.503906 304.691406 240.09375 301.15625 C 240.332031 299.707031 240.980469 298.359375 241.886719 297.207031 C 242.898438 295.921875 243.613281 294.480469 243.972656 292.84375 C 244.230469 291.667969 245.277344 290.832031 246.480469 290.875 Z M 246.480469 290.875 " fill-opacity="1" fill-rule="nonzero"/><path fill="#2a245e" d="M 267.621094 218.269531 C 270.925781 223.390625 272.617188 228.515625 272.628906 233.636719 C 272.628906 233.636719 242.386719 245.359375 242.386719 245.359375 C 239.375 240.371094 239.730469 235.539062 244.289062 230.90625 C 244.289062 230.90625 267.621094 218.269531 267.621094 218.269531 Z M 267.621094 218.269531 " fill-opacity="1" fill-rule="nonzero"/><path fill="#7867b4" d="M 271.246094 217.800781 C 271.347656 218.238281 271.15625 218.691406 270.769531 218.917969 C 270.769531 218.917969 265.929688 221.78125 265.929688 221.78125 C 265.929688 221.78125 240.070312 237.078125 240.070312 237.078125 C 226.503906 211.390625 220.683594 187.246094 238.039062 178.339844 C 239.296875 177.695312 240.679688 177.128906 242.1875 176.648438 C 258.410156 177.601562 265.984375 195.445312 271.246094 217.800781 Z M 271.246094 217.800781 " fill-opacity="1" fill-rule="nonzero"/><path fill="#94d4c4" d="M 270.734375 218.941406 C 270.734375 218.941406 265.929688 221.78125 265.929688 221.78125 C 261.8125 201.226562 253.21875 185.914062 238.039062 178.339844 C 239.296875 177.695312 240.675781 177.128906 242.1875 176.648438 C 258.398438 177.601562 265.972656 195.421875 271.234375 217.761719 C 271.34375 218.222656 271.140625 218.699219 270.734375 218.941406 Z M 270.734375 218.941406 " fill-opacity="1" fill-rule="nonzero"/><path fill="#7867b4" d="M 284.140625 282.339844 C 283.875 284.054688 282.578125 285.417969 280.894531 285.835938 C 277.875 286.582031 274.78125 287.117188 271.617188 287.449219 C 264 288.25 255.980469 287.859375 247.609375 286.398438 C 246.96875 286.285156 246.386719 285.933594 245.992188 285.414062 C 237.628906 274.367188 232.914062 261.390625 239.054688 242.65625 C 240.207031 244.144531 254.097656 239.480469 263.992188 235.183594 C 268.460938 233.242188 272.113281 231.375 273.410156 230.183594 C 273.738281 229.878906 274.265625 229.960938 274.480469 230.351562 C 285.046875 249.675781 286.605469 266.554688 284.140625 282.339844 Z M 284.140625 282.339844 " fill-opacity="1" fill-rule="nonzero"/><path fill="#94d4c4" d="M 280.898438 285.832031 C 277.875 286.582031 274.78125 287.117188 271.617188 287.449219 C 274.035156 268.707031 272.414062 251.042969 263.992188 235.183594 C 268.472656 233.238281 272.128906 231.367188 273.417969 230.175781 C 273.742188 229.875 274.261719 229.953125 274.472656 230.34375 C 285.046875 249.671875 286.605469 266.554688 284.140625 282.34375 C 283.871094 284.054688 282.578125 285.417969 280.898438 285.832031 Z M 280.898438 285.832031 " fill-opacity="1" fill-rule="nonzero"/><path fill="#7867b4" d="M 197.265625 307.703125 C 197.265625 307.703125 197.261719 307.703125 197.261719 307.703125 C 195.753906 308.015625 194.203125 308.289062 192.617188 308.523438 C 188.484375 308.785156 184.578125 308.726562 180.894531 308.382812 C 135.375 304.144531 122.851562 255.503906 118.472656 195.902344 C 118.472656 195.902344 165.597656 188.566406 165.597656 188.566406 C 165.597656 188.566406 205.28125 182.386719 205.28125 182.386719 C 205.28125 182.386719 205.300781 182.382812 205.300781 182.382812 C 205.300781 182.382812 242.289062 176.625 242.289062 176.625 C 253.273438 250.644531 245.058594 297.832031 197.265625 307.703125 Z M 197.265625 307.703125 " fill-opacity="1" fill-rule="nonzero"/><path fill="#94d4c4" d="M 197.265625 307.703125 C 219.75 301.246094 225.199219 217.351562 205.28125 182.386719 C 205.28125 182.386719 205.300781 182.382812 205.300781 182.382812 C 205.300781 182.382812 242.289062 176.625 242.289062 176.625 C 253.273438 250.644531 245.058594 297.832031 197.265625 307.703125 Z M 197.265625 307.703125 " fill-opacity="1" fill-rule="nonzero"/><path fill="#2a245e" d="M 221.621094 203.960938 C 221.621094 203.960938 233.070312 201.648438 233.070312 201.648438 C 234.515625 201.359375 235.867188 202.464844 235.867188 203.9375 C 235.867188 203.9375 235.867188 229.515625 235.867188 229.515625 C 235.867188 230.539062 235.203125 231.457031 234.21875 231.75 C 230.433594 232.878906 226.519531 233.257812 222.5 233.046875 C 221.269531 232.984375 220.292969 231.992188 220.269531 230.761719 C 220.269531 230.761719 219.746094 206.300781 219.746094 206.300781 C 219.722656 205.167969 220.511719 204.183594 221.621094 203.960938 Z M 221.621094 203.960938 " fill-opacity="1" fill-rule="nonzero"/><path fill="#ffe241" d="M 222.191406 208.078125 C 222.191406 208.078125 222.4375 211.332031 222.4375 211.332031 C 222.480469 211.859375 222.964844 212.234375 223.484375 212.140625 C 223.484375 212.140625 232.476562 210.546875 232.476562 210.546875 C 232.902344 210.472656 233.210938 210.101562 233.210938 209.671875 C 233.210938 209.671875 233.210938 205.984375 233.210938 205.984375 C 233.210938 205.417969 232.6875 204.992188 232.128906 205.117188 C 232.128906 205.117188 222.890625 207.140625 222.890625 207.140625 C 222.457031 207.234375 222.160156 207.636719 222.191406 208.078125 Z M 222.191406 208.078125 " fill-opacity="1" fill-rule="nonzero"/><path fill="#ffe241" d="M 222.664062 216.074219 C 222.664062 216.074219 222.664062 219.273438 222.664062 219.273438 C 222.664062 219.78125 223.085938 220.1875 223.59375 220.164062 C 223.59375 220.164062 232.40625 219.785156 232.40625 219.785156 C 232.863281 219.765625 233.230469 219.402344 233.257812 218.945312 C 233.257812 218.945312 233.527344 214.234375 233.527344 214.234375 C 233.558594 213.648438 233.027344 213.191406 232.453125 213.308594 C 232.453125 213.308594 223.375 215.203125 223.375 215.203125 C 222.960938 215.289062 222.664062 215.652344 222.664062 216.074219 Z M 222.664062 216.074219 " fill-opacity="1" fill-rule="nonzero"/><path fill="#ffe241" d="M 222.664062 224.882812 C 222.664062 224.882812 222.664062 228.589844 222.664062 228.589844 C 222.664062 229.105469 223.097656 229.511719 223.613281 229.480469 C 223.613281 229.480469 232.757812 228.910156 232.757812 228.910156 C 233.226562 228.878906 233.589844 228.488281 233.589844 228.019531 C 233.589844 228.019531 233.589844 223.996094 233.589844 223.996094 C 233.589844 223.46875 233.136719 223.058594 232.613281 223.109375 C 232.613281 223.109375 223.46875 223.996094 223.46875 223.996094 C 223.011719 224.042969 222.664062 224.425781 222.664062 224.882812 Z M 222.664062 224.882812 " fill-opacity="1" fill-rule="nonzero"/><path fill="#2a245e" d="M 121.105469 199.539062 C 140.371094 208.53125 226.269531 194.851562 241.117188 180.515625 C 243.4375 178.269531 242.425781 174.332031 239.332031 173.410156 C 219.070312 167.382812 138.097656 177.820312 120.246094 191.632812 C 117.5 193.757812 117.957031 198.070312 121.105469 199.539062 Z M 121.105469 199.539062 " fill-opacity="1" fill-rule="nonzero"/><path fill="#7867b4" d="M 215.140625 326.078125 C 214.882812 326.519531 214.515625 326.882812 214.070312 327.128906 C 209.171875 329.878906 204.242188 331.898438 199.28125 333.207031 C 188.0625 336.160156 176.6875 335.445312 165.144531 331.179688 C 164.589844 330.972656 164.105469 330.589844 163.777344 330.097656 C 161.976562 327.394531 161.316406 324.644531 161.730469 321.847656 C 161.960938 320.285156 163.441406 319.222656 165.003906 319.480469 C 177.058594 321.484375 188.921875 321.222656 200.566406 318.449219 C 204.695312 317.46875 208.792969 316.167969 212.871094 314.542969 C 214.5625 313.871094 216.457031 314.960938 216.714844 316.761719 C 217.210938 320.179688 216.761719 323.308594 215.140625 326.078125 Z M 215.140625 326.078125 " fill-opacity="1" fill-rule="nonzero"/><path fill="#94d4c4" d="M 215.140625 326.078125 C 214.882812 326.519531 214.515625 326.882812 214.070312 327.128906 C 209.171875 329.878906 204.242188 331.898438 199.28125 333.207031 C 204.003906 328.941406 204.960938 324.105469 200.566406 318.449219 C 204.695312 317.46875 208.792969 316.167969 212.871094 314.542969 C 214.5625 313.871094 216.457031 314.960938 216.714844 316.761719 C 217.210938 320.179688 216.761719 323.308594 215.140625 326.078125 Z M 215.140625 326.078125 " fill-opacity="1" fill-rule="nonzero"/><path fill="#7867b4" d="M 210.832031 342.496094 C 210.738281 343.097656 210.59375 343.703125 210.386719 344.304688 C 209.808594 346.015625 208.476562 347.378906 206.789062 348.035156 C 204.445312 348.957031 202.054688 349.75 199.617188 350.425781 C 192.964844 352.273438 185.984375 353.226562 178.675781 353.332031 C 176.144531 353.367188 173.734375 352.203125 172.222656 350.179688 C 171.4375 349.136719 170.910156 348.125 170.667969 347.152344 C 170.097656 344.90625 171.789062 342.707031 174.105469 342.632812 C 183.367188 342.324219 192.195312 341.492188 200.382812 339.882812 C 202.445312 339.480469 204.460938 339.027344 206.4375 338.523438 C 208.902344 337.886719 211.203125 339.976562 210.832031 342.496094 Z M 210.832031 342.496094 " fill-opacity="1" fill-rule="nonzero"/><path fill="#94d4c4" d="M 210.832031 342.496094 C 210.738281 343.097656 210.59375 343.703125 210.386719 344.304688 C 209.808594 346.015625 208.476562 347.378906 206.792969 348.035156 C 204.445312 348.957031 202.054688 349.75 199.617188 350.425781 C 201.445312 347.296875 201.894531 343.832031 200.382812 339.882812 C 202.445312 339.480469 204.460938 339.027344 206.4375 338.523438 C 208.902344 337.886719 211.203125 339.976562 210.832031 342.496094 Z M 210.832031 342.496094 " fill-opacity="1" fill-rule="nonzero"/><path fill="#7867b4" d="M 189.660156 75.203125 C 189.660156 75.203125 181.863281 76.703125 181.863281 76.703125 C 181.863281 76.703125 162.796875 80.363281 162.796875 80.363281 C 162.890625 75.667969 162.308594 70.703125 175.316406 68.523438 C 175.769531 68.421875 176.214844 68.335938 176.65625 68.253906 C 184.210938 66.871094 188.917969 68.785156 189.660156 75.203125 Z M 189.660156 75.203125 " fill-opacity="1" fill-rule="nonzero"/><path fill="#94d4c4" d="M 181.140625 76.878906 C 182.175781 71.648438 180.597656 69.144531 176.652344 68.253906 C 184.210938 66.871094 188.917969 68.785156 189.660156 75.207031 C 189.660156 75.207031 181.140625 76.878906 181.140625 76.878906 Z M 181.140625 76.878906 " fill-opacity="1" fill-rule="nonzero"/><path fill="#2a245e" d="M 170.652344 41.628906 C 172.273438 52.96875 172.367188 62.40625 170.652344 69.585938 C 170.652344 69.585938 181.355469 67.835938 181.355469 67.835938 C 175.933594 61.285156 173.914062 51.445312 172.925781 40.601562 C 172.925781 40.601562 170.652344 41.628906 170.652344 41.628906 Z M 170.652344 41.628906 " fill-opacity="1" fill-rule="nonzero"/><path fill="#ffe241" d="M 180.25 39.84375 C 180.25 44.539062 176.445312 48.34375 171.75 48.34375 C 167.058594 48.34375 163.253906 44.539062 163.253906 39.84375 C 163.253906 35.152344 167.058594 31.347656 171.75 31.347656 C 176.445312 31.347656 180.25 35.152344 180.25 39.84375 Z M 180.25 39.84375 " fill-opacity="1" fill-rule="nonzero"/><path fill="#eecaca" d="M 180.25 39.84375 C 180.25 44.539062 176.445312 48.34375 171.75 48.34375 C 171.066406 48.34375 170.398438 48.265625 169.761719 48.109375 C 173.492188 47.214844 176.269531 43.851562 176.269531 39.84375 C 176.269531 35.835938 173.492188 32.476562 169.761719 31.582031 C 170.398438 31.425781 171.066406 31.347656 171.75 31.347656 C 176.445312 31.347656 180.25 35.152344 180.25 39.84375 Z M 180.25 39.84375 " fill-opacity="1" fill-rule="nonzero"/><path fill="#7867b4" d="M 238.648438 146.167969 C 231.414062 149.910156 223.988281 153.226562 216.363281 156.113281 C 216.363281 156.113281 216.363281 156.117188 216.363281 156.117188 C 199.664062 162.445312 182.023438 166.734375 163.460938 169.035156 C 154.582031 170.140625 145.488281 170.785156 136.195312 170.980469 C 133.660156 171.03125 131.441406 169.277344 130.90625 166.804688 C 123.695312 133.667969 119.796875 102.070312 147.328125 85.125 C 154.136719 80.933594 162.871094 77.632812 173.953125 75.433594 C 176.496094 74.863281 178.96875 74.414062 181.367188 74.085938 C 217.117188 69.195312 237.394531 91.121094 241.328125 141.375 C 241.488281 143.367188 240.421875 145.253906 238.648438 146.167969 Z M 238.648438 146.167969 " fill-opacity="1" fill-rule="nonzero"/><path fill="#94d4c4" d="M 238.648438 146.167969 C 231.414062 149.910156 225.199219 154.054688 203.558594 160.511719 C 207.507812 133.019531 216.546875 82.191406 181.355469 74.09375 C 181.355469 74.09375 181.367188 74.085938 181.367188 74.085938 C 217.117188 69.195312 237.394531 91.121094 241.328125 141.375 C 241.488281 143.367188 240.421875 145.253906 238.648438 146.167969 Z M 238.648438 146.167969 " fill-opacity="1" fill-rule="nonzero"/><path fill="#2a245e" d="M 165.179688 95.222656 C 142.503906 106.179688 140.460938 124.25 144.359375 144.023438 C 149.46875 158.601562 162.664062 155.734375 180.875 145.328125 C 186.144531 142.320312 192.304688 141.183594 198.28125 142.242188 C 217.953125 145.726562 234.050781 138.695312 226.003906 114.28125 C 219.460938 99.164062 207.019531 91.847656 189.730469 90.445312 C 181.5 89.777344 173.398438 91.25 165.179688 95.222656 Z M 165.179688 95.222656 " fill-opacity="1" fill-rule="nonzero"/><path fill="#ffe241" d="M 166.566406 121.148438 C 167.164062 125.039062 165.96875 128.453125 163.894531 128.773438 C 161.824219 129.089844 159.660156 126.191406 159.066406 122.296875 C 158.46875 118.402344 159.664062 114.988281 161.734375 114.671875 C 163.804688 114.355469 165.96875 117.253906 166.566406 121.148438 Z M 166.566406 121.148438 " fill-opacity="1" fill-rule="nonzero"/><path fill="#ffe241" d="M 207.105469 114.929688 C 207.703125 118.824219 206.507812 122.238281 204.4375 122.554688 C 202.367188 122.875 200.203125 119.976562 199.605469 116.082031 C 199.007812 112.1875 200.203125 108.773438 202.277344 108.457031 C 204.347656 108.136719 206.507812 111.039062 207.105469 114.929688 Z M 207.105469 114.929688 " fill-opacity="1" fill-rule="nonzero"/><path fill="#ffe241" d="M 196.199219 125.421875 C 196.4375 128.46875 192.460938 134.066406 187.054688 134.488281 C 181.644531 134.90625 176.855469 129.984375 176.621094 126.9375 C 176.382812 123.886719 180.902344 125.3125 186.308594 124.890625 C 191.71875 124.472656 195.964844 122.371094 196.199219 125.421875 Z M 196.199219 125.421875 " fill-opacity="1" fill-rule="nonzero"/><path fill="#ffe241" d="M 107.679688 69.824219 C 107.679688 69.824219 111.257812 41.1875 111.257812 41.1875 C 111.382812 40.191406 112.433594 39.597656 113.351562 40.007812 C 113.351562 40.007812 128.171875 46.640625 128.171875 46.640625 C 129.078125 47.042969 129.34375 48.199219 128.710938 48.960938 C 128.710938 48.960938 110.308594 70.96875 110.308594 70.96875 C 109.351562 72.113281 107.496094 71.304688 107.679688 69.824219 Z M 107.679688 69.824219 " fill-opacity="1" fill-rule="nonzero"/><path fill="#ffe241" d="M 63.292969 62.332031 C 63.292969 62.332031 46.25 39.042969 46.25 39.042969 C 45.65625 38.234375 46.015625 37.082031 46.960938 36.75 C 46.960938 36.75 62.296875 31.40625 62.296875 31.40625 C 63.230469 31.078125 64.21875 31.738281 64.28125 32.726562 C 64.28125 32.726562 65.992188 61.363281 65.992188 61.363281 C 66.078125 62.847656 64.171875 63.535156 63.292969 62.332031 Z M 63.292969 62.332031 " fill-opacity="1" fill-rule="nonzero"/><path fill="#ffe241" d="M 39.964844 92.539062 C 39.964844 92.539062 11.121094 91.570312 11.121094 91.570312 C 10.117188 91.539062 9.429688 90.542969 9.757812 89.59375 C 9.757812 89.59375 15.015625 74.230469 15.015625 74.230469 C 15.335938 73.292969 16.464844 72.921875 17.28125 73.488281 C 17.28125 73.488281 40.863281 89.816406 40.863281 89.816406 C 42.089844 90.667969 41.453125 92.589844 39.964844 92.539062 Z M 39.964844 92.539062 " fill-opacity="1" fill-rule="nonzero"/><path fill="#ffe241" d="M 49.863281 137.832031 C 49.863281 137.832031 31.183594 159.832031 31.183594 159.832031 C 30.53125 160.597656 29.328125 160.515625 28.785156 159.671875 C 28.785156 159.671875 20.019531 146.003906 20.019531 146.003906 C 19.484375 145.167969 19.894531 144.054688 20.839844 143.765625 C 20.839844 143.765625 48.292969 135.4375 48.292969 135.4375 C 49.71875 135.003906 50.828125 136.699219 49.863281 137.832031 Z M 49.863281 137.832031 " fill-opacity="1" fill-rule="nonzero"/><path fill="#2a245e" d="M 114.230469 227.761719 C 115.5 233.71875 118.742188 237.355469 123.707031 238.957031 C 130.792969 237.84375 137.289062 235.875 141.84375 231.121094 C 145.570312 225.777344 144.824219 220.230469 140.820312 214.53125 C 140.820312 214.53125 114.230469 227.761719 114.230469 227.761719 Z M 114.230469 227.761719 " fill-opacity="1" fill-rule="nonzero"/><path fill="#7867b4" d="M 140.816406 214.53125 C 140.78125 215.71875 140.402344 216.871094 139.722656 217.839844 C 137.292969 221.289062 134.492188 223.894531 131.308594 225.660156 C 127.121094 227.996094 122.289062 228.882812 116.835938 228.378906 C 114.765625 228.183594 112.800781 227.332031 111.195312 225.996094 C 97.542969 214.679688 86.691406 194.863281 77.855469 168.9375 C 76.695312 165.539062 78.734375 161.871094 82.21875 161.09375 C 91.785156 158.957031 100.679688 155.859375 108.90625 151.820312 C 111.191406 150.699219 113.429688 149.507812 115.609375 148.242188 C 118.566406 146.519531 122.382812 147.597656 124.039062 150.605469 C 135.796875 172.003906 141.484375 193.3125 140.816406 214.53125 Z M 140.816406 214.53125 " fill-opacity="1" fill-rule="nonzero"/><path fill="#94d4c4" d="M 140.816406 214.53125 C 140.78125 215.71875 140.402344 216.871094 139.722656 217.839844 C 137.292969 221.289062 134.492188 223.894531 131.308594 225.660156 C 130.34375 196.816406 124.5625 171.105469 108.90625 151.820312 C 111.191406 150.699219 113.429688 149.507812 115.609375 148.242188 C 118.566406 146.519531 122.382812 147.597656 124.039062 150.605469 C 135.796875 172.003906 141.484375 193.3125 140.816406 214.53125 Z M 140.816406 214.53125 " fill-opacity="1" fill-rule="nonzero"/><path fill="#2a245e" d="M 105.984375 113.886719 C 108.140625 109.894531 110.523438 106.203125 113.871094 103.75 C 114.925781 102.976562 116.164062 102.449219 117.472656 102.421875 C 124.710938 102.253906 128.324219 114.636719 123.664062 120.644531 C 119.546875 125.453125 114.976562 128.375 110.105469 130.023438 C 110.105469 130.023438 105.984375 113.886719 105.984375 113.886719 Z M 105.984375 113.886719 " fill-opacity="1" fill-rule="nonzero"/><path fill="#2a245e" d="M 89.8125 113.566406 C 86.054688 103.59375 83.566406 95.5625 82.445312 89.625 C 81.390625 84.066406 85.777344 78.792969 91.421875 79.183594 C 91.601562 79.199219 91.785156 79.214844 91.964844 79.238281 C 94.480469 79.574219 96.617188 81.257812 97.71875 83.542969 C 100.730469 89.820312 102.246094 100.535156 103.28125 112.6875 C 103.28125 112.6875 89.8125 113.566406 89.8125 113.566406 Z M 89.8125 113.566406 " fill-opacity="1" fill-rule="nonzero"/><path fill="#2a245e" d="M 74.9375 121.664062 C 69.710938 113.742188 64.328125 105.703125 61.585938 99.632812 C 60.089844 96.324219 60.320312 92.421875 62.417969 89.457031 C 63.789062 87.523438 65.617188 86.449219 67.945312 86.324219 C 71.070312 86.15625 73.988281 87.886719 75.570312 90.585938 C 79.128906 96.671875 82.484375 105.660156 85.8125 115.070312 C 85.8125 115.070312 74.9375 121.664062 74.9375 121.664062 Z M 74.9375 121.664062 " fill-opacity="1" fill-rule="nonzero"/><path fill="#2a245e" d="M 71.878906 124.507812 C 68.722656 119.132812 65.574219 113.824219 62.636719 110.679688 C 60.53125 108.421875 57.285156 107.496094 54.382812 108.542969 C 52.394531 109.257812 51.203125 110.636719 50.761719 112.640625 C 50.332031 114.605469 50.800781 116.671875 51.929688 118.335938 C 55.890625 124.175781 61.238281 128.960938 67.070312 133.375 C 67.070312 133.375 71.878906 124.507812 71.878906 124.507812 Z M 71.878906 124.507812 " fill-opacity="1" fill-rule="nonzero"/><path fill="#2a245e" d="M 67.070312 133.375 C 68.207031 121.515625 94.683594 106.851562 105.984375 113.886719 C 113.382812 130.921875 111.082031 142.695312 97.023438 148.085938 C 83.226562 154.453125 73.324219 149.304688 67.070312 133.375 Z M 67.070312 133.375 " fill-opacity="1" fill-rule="nonzero"/></svg>